<?xml version="1.0" encoding="UTF-8"?><svg id="Layer_2" xmlns="http://www.w3.org/2000/svg" viewBox="0 0 144.66 142.46"><defs><style>.cls-1{fill:#fff;}.cls-2{fill:#ffe175;}.cls-3{fill:#ffda36;}.cls-4{fill:#ffc52b;}.cls-5{fill:#a24818;}</style></defs><g id="Object"><g><g><path class="cls-3" d="M14.95,23.62C6.31,34.9,2.91,49.66,1.13,64.06c-1.5,12.09-1.99,24.64,1.61,36.22,5.32,17.11,19.31,30.23,35.22,36.62,15.9,6.39,33.51,6.66,50.32,3.88,29.86-4.93,54.67-33.03,56.29-65.17C146.95,28.35,102.88-4.77,61.06,.56,43.76,2.77,25.94,9.28,14.95,23.62Z"/><path class="cls-2" d="M113.75,22.99c-5.58-12.41-24.98-17.39-36.72-15.54-1.84,.29-1.12,2.93,.4,3.14,6.91,.92,13.02,2.21,19.33,5.47,5.16,2.67,8.91,7.4,13.96,10.15,2.05,1.12,3.99-1.09,3.04-3.22Z"/><path class="cls-2" d="M118.51,29.42c-1.49-.17-2.17,2.03-1.18,3.03,2.03,2.05,4.32,3.6,6.14,5.92,1.94,2.47,3,5.5,4.95,7.99,1.25,1.59,3.39,.16,3.51-1.54,.48-6.98-7.1-14.65-13.41-15.4Z"/><path class="cls-4" d="M88.27,140.78c19.77-3.27,37.33-16.7,47.41-34.73-13.21,9.56-28.7,15.51-44.66,16.3-25.41,1.26-51.46-11.21-66.03-33.29-13.18-19.97-15.91-47.4-6.52-69.49-1.23,1.28-2.41,2.62-3.51,4.05C6.31,34.9,2.91,49.66,1.13,64.06c-1.5,12.09-1.99,24.64,1.61,36.22,5.32,17.11,19.31,30.23,35.22,36.62,15.9,6.39,33.51,6.66,50.32,3.88Z"/></g><g><path class="cls-5" d="M41.01,46.3c-10.84,.9-8.37,16.55,1.9,17.15,10.27,.6,12.56-18.35-1.9-17.15Z"/><path class="cls-1" d="M40.91,49.34c-2.23-2.23-5.31,1.86-2.6,3.36,2.1,1.16,4.37-1.59,2.6-3.36Z"/></g><g><path class="cls-5" d="M95.22,46.3c-10.84,.9-8.37,16.55,1.9,17.15,10.28,.6,12.56-18.35-1.9-17.15Z"/><path class="cls-1" d="M95.47,49.34c-2.23-2.23-5.31,1.86-2.6,3.36,2.1,1.16,4.37-1.59,2.6-3.36Z"/></g><path class="cls-5" d="M88.17,93.1c-3.83-6.92-10.02-10.86-17.92-9.65-6.45,.98-13.48,5.15-15.32,11.68-.22,.79,.9,1.57,1.46,.85,3.15-4.07,6.52-6.57,11.45-8.24,8.59-2.91,12.65,1.68,18.71,6.6,.88,.71,2.21-.17,1.61-1.24Z"/></g></g></svg>