<?xml version="1.0" encoding="UTF-8"?><svg id="Layer_2" xmlns="http://www.w3.org/2000/svg" viewBox="0 0 144.66 142.46"><defs><style>.cls-1{fill:#f27976;}.cls-2{fill:#ffe175;}.cls-3{fill:#ffda36;}.cls-4{fill:#ffc52b;}.cls-5{fill:#a24818;}</style></defs><g id="Object"><g><g><path class="cls-3" d="M14.95,23.62C6.31,34.9,2.91,49.66,1.13,64.06c-1.5,12.09-1.99,24.64,1.61,36.22,5.32,17.11,19.31,30.23,35.22,36.62,15.9,6.39,33.51,6.66,50.32,3.88,29.86-4.93,54.67-33.03,56.29-65.17C146.95,28.35,102.88-4.77,61.06,.56,43.76,2.77,25.94,9.28,14.95,23.62Z"/><path class="cls-2" d="M113.75,22.99c-5.58-12.41-24.98-17.39-36.72-15.54-1.84,.29-1.12,2.93,.4,3.14,6.91,.92,13.02,2.21,19.33,5.47,5.16,2.67,8.91,7.4,13.96,10.15,2.05,1.12,3.99-1.09,3.04-3.22Z"/><path class="cls-2" d="M118.51,29.42c-1.49-.17-2.17,2.03-1.18,3.03,2.03,2.05,4.32,3.6,6.14,5.92,1.94,2.47,3,5.5,4.95,7.99,1.25,1.59,3.39,.16,3.51-1.54,.48-6.98-7.1-14.65-13.41-15.4Z"/><path class="cls-4" d="M88.27,140.78c19.77-3.27,37.33-16.7,47.41-34.73-13.21,9.56-28.7,15.51-44.66,16.3-25.41,1.26-51.46-11.21-66.03-33.29-13.18-19.97-15.91-47.4-6.52-69.49-1.23,1.28-2.41,2.62-3.51,4.05C6.31,34.9,2.91,49.66,1.13,64.06c-1.5,12.09-1.99,24.64,1.61,36.22,5.32,17.11,19.31,30.23,35.22,36.62,15.9,6.39,33.51,6.66,50.32,3.88Z"/></g><path class="cls-1" d="M37.73,46.41s-6.3-8.74-16.09-2.1c-9.79,6.65,13.64,27.28,17.14,27.98,3.5,.7,23.08-19.24,17.14-27.98-5.95-8.74-16.79-1.4-18.19,2.1Z"/><path class="cls-1" d="M105.72,46.41s6.3-8.74,16.09-2.1c9.79,6.65-13.64,27.28-17.14,27.98-3.5,.7-23.08-19.24-17.14-27.98s16.79-1.4,18.19,2.1Z"/><path class="cls-5" d="M93.86,80.85c-4.51,5.5-9.37,10.19-16.15,12.8-9.1,3.5-19.95-4.97-25.01-11.6-.7-.93-2.61-.42-2.08,.88,3.43,8.29,11.7,14.58,20.76,15.53,10.7,1.12,19.82-7,24.51-16.04,.64-1.24-1.06-2.75-2.03-1.56Z"/></g></g></svg>